<svg width="217" height="94" viewBox="0 0 217 94" fill="none" xmlns="http://www.w3.org/2000/svg">
<path d="M41.3559 10.05H70.6559V15.35H41.3559V10.05ZM37.0559 41.45H78.9559V46.85H37.0559V41.45ZM51.8559 25.55H58.5559V44.15H51.8559V25.55ZM68.2559 10.05H74.9559V14.45C74.9559 16.3833 74.9225 18.4333 74.8559 20.6C74.8225 22.7667 74.6725 25.1667 74.4059 27.8C74.1725 30.4333 73.7392 33.3833 73.1059 36.65L66.4559 35.95C67.3892 31.3167 67.9225 27.2833 68.0559 23.85C68.1892 20.3833 68.2559 17.25 68.2559 14.45V10.05ZM91.852 8.8H120.852V14.05H91.852V8.8ZM87.052 28.5H128.952V33.9H87.052V28.5ZM104.402 32.3H111.102V52.45H104.402V32.3ZM117.452 8.8H124.002V12.9C124.002 14.5667 123.969 16.3333 123.902 18.2C123.869 20.0667 123.735 22.1167 123.502 24.35C123.269 26.55 122.835 29.0167 122.202 31.75L115.702 30.95C116.569 27.1167 117.069 23.7667 117.202 20.9C117.369 18 117.452 15.3333 117.452 12.9V8.8ZM170.448 6.1H176.798V52.4H170.448V6.1ZM164.898 23.8H172.598V29.1H164.898V23.8ZM160.348 6.85H166.548V50.35H160.348V6.85ZM138.348 10.85H156.598V40.85H138.348V10.85ZM150.448 16.05H144.548V35.7H150.448V16.05Z" fill="#212121"/>
<path d="M13.6802 72.22H16.3402V90.8H13.6802V72.22ZM6.36016 73.52C7.30682 73.52 8.14682 73.7933 8.88016 74.34C9.61349 74.8733 10.1868 75.64 10.6002 76.64C11.0268 77.6267 11.2402 78.7933 11.2402 80.14C11.2402 81.5 11.0268 82.68 10.6002 83.68C10.1868 84.6667 9.61349 85.4333 8.88016 85.98C8.14682 86.5133 7.30682 86.78 6.36016 86.78C5.42682 86.78 4.59349 86.5133 3.86016 85.98C3.12682 85.4333 2.54682 84.6667 2.12016 83.68C1.70682 82.68 1.50016 81.5 1.50016 80.14C1.50016 78.7933 1.70682 77.6267 2.12016 76.64C2.54682 75.64 3.12682 74.8733 3.86016 74.34C4.59349 73.7933 5.42682 73.52 6.36016 73.52ZM6.36016 75.94C5.90682 75.94 5.50682 76.1 5.16016 76.42C4.81349 76.74 4.54016 77.2133 4.34016 77.84C4.15349 78.4533 4.06016 79.22 4.06016 80.14C4.06016 81.0467 4.15349 81.82 4.34016 82.46C4.54016 83.0867 4.81349 83.56 5.16016 83.88C5.50682 84.2 5.90682 84.36 6.36016 84.36C6.82682 84.36 7.23349 84.2 7.58016 83.88C7.92682 83.56 8.19349 83.0867 8.38016 82.46C8.58016 81.82 8.68016 81.0467 8.68016 80.14C8.68016 79.22 8.58016 78.4533 8.38016 77.84C8.19349 77.2133 7.92682 76.74 7.58016 76.42C7.23349 76.1 6.82682 75.94 6.36016 75.94ZM19.3586 80.38H36.1386V82.5H19.3586V80.38ZM26.3786 81.32H29.0186V84.24H26.3786V81.32ZM26.3386 84.98H28.5986V85.32C28.5986 85.9867 28.4386 86.6267 28.1186 87.24C27.8119 87.84 27.3519 88.38 26.7386 88.86C26.1253 89.34 25.3586 89.74 24.4386 90.06C23.5319 90.3933 22.4853 90.6133 21.2986 90.72L20.4386 88.72C21.4519 88.6267 22.3319 88.4667 23.0786 88.24C23.8253 88 24.4386 87.7267 24.9186 87.42C25.3986 87.1 25.7519 86.76 25.9786 86.4C26.2186 86.0267 26.3386 85.6667 26.3386 85.32V84.98ZM26.7986 84.98H29.0586V85.32C29.0586 85.6933 29.1719 86.0667 29.3986 86.44C29.6253 86.8 29.9786 87.14 30.4586 87.46C30.9519 87.7667 31.5653 88.0333 32.2986 88.26C33.0453 88.4733 33.9253 88.6267 34.9386 88.72L34.0986 90.72C32.9253 90.6 31.8786 90.38 30.9586 90.06C30.0519 89.7533 29.2919 89.3667 28.6786 88.9C28.0653 88.42 27.5986 87.88 27.2786 87.28C26.9586 86.6667 26.7986 86.0133 26.7986 85.32V84.98ZM27.7386 72.44C29.1119 72.44 30.2986 72.58 31.2986 72.86C32.3119 73.14 33.0919 73.54 33.6386 74.06C34.1853 74.58 34.4586 75.2067 34.4586 75.94C34.4586 76.6733 34.1853 77.3 33.6386 77.82C33.0919 78.34 32.3119 78.74 31.2986 79.02C30.2986 79.3 29.1119 79.44 27.7386 79.44C26.3786 79.44 25.1919 79.3 24.1786 79.02C23.1786 78.74 22.4053 78.34 21.8586 77.82C21.3119 77.3 21.0386 76.6733 21.0386 75.94C21.0386 75.2067 21.3119 74.58 21.8586 74.06C22.4053 73.54 23.1786 73.14 24.1786 72.86C25.1919 72.58 26.3786 72.44 27.7386 72.44ZM27.7386 74.44C26.8986 74.44 26.1786 74.4933 25.5786 74.6C24.9919 74.7067 24.5453 74.8733 24.2386 75.1C23.9453 75.3267 23.7986 75.6067 23.7986 75.94C23.7986 76.2733 23.9453 76.5533 24.2386 76.78C24.5453 77.0067 24.9919 77.1733 25.5786 77.28C26.1786 77.3867 26.8986 77.44 27.7386 77.44C28.5919 77.44 29.3119 77.3867 29.8986 77.28C30.4853 77.1733 30.9319 77.0067 31.2386 76.78C31.5453 76.5533 31.6986 76.2733 31.6986 75.94C31.6986 75.6067 31.5453 75.3267 31.2386 75.1C30.9319 74.8733 30.4853 74.7067 29.8986 74.6C29.3119 74.4933 28.5919 74.44 27.7386 74.44ZM38.537 74.08H46.537V76.2H38.537V74.08ZM40.937 79.38H43.537V85.68H40.937V79.38ZM45.457 74.08H48.097V75.6C48.097 76.4933 48.0704 77.5133 48.017 78.66C47.977 79.8067 47.8304 81.1533 47.577 82.7L44.977 82.48C45.217 81 45.357 79.7067 45.397 78.6C45.437 77.48 45.457 76.48 45.457 75.6V74.08ZM49.677 72.24H52.317V90.76H49.677V72.24ZM51.557 79.68H54.817V81.88H51.557V79.68ZM37.857 87.04L37.617 84.88C38.697 84.88 39.8704 84.8733 41.137 84.86C42.417 84.8333 43.7104 84.7867 45.017 84.72C46.337 84.64 47.6104 84.5267 48.837 84.38L48.957 86.32C47.7037 86.52 46.4237 86.6733 45.117 86.78C43.8237 86.8867 42.557 86.96 41.317 87C40.077 87.0267 38.9237 87.04 37.857 87.04ZM72.8411 72.26H75.5011V83.4H72.8411V72.26ZM74.7811 76.82H77.9611V79H74.7811V76.82ZM63.4611 84.22H75.5011V90.58H63.4611V84.22ZM72.9011 86.3H66.0811V88.48H72.9011V86.3ZM60.9411 73.9H71.8211V76H60.9411V73.9ZM66.3811 76.56C67.2878 76.56 68.0811 76.7 68.7611 76.98C69.4411 77.26 69.9744 77.6533 70.3611 78.16C70.7478 78.6533 70.9411 79.2333 70.9411 79.9C70.9411 80.5533 70.7478 81.1333 70.3611 81.64C69.9744 82.1333 69.4411 82.52 68.7611 82.8C68.0811 83.08 67.2878 83.22 66.3811 83.22C65.4878 83.22 64.6944 83.08 64.0011 82.8C63.3211 82.52 62.7878 82.1333 62.4011 81.64C62.0144 81.1333 61.8211 80.5533 61.8211 79.9C61.8211 79.2333 62.0144 78.6533 62.4011 78.16C62.7878 77.6533 63.3211 77.26 64.0011 76.98C64.6944 76.7 65.4878 76.56 66.3811 76.56ZM66.3811 78.52C65.7944 78.52 65.3144 78.64 64.9411 78.88C64.5678 79.1067 64.3811 79.4467 64.3811 79.9C64.3811 80.3533 64.5678 80.7 64.9411 80.94C65.3144 81.1667 65.7944 81.28 66.3811 81.28C66.9811 81.28 67.4611 81.1667 67.8211 80.94C68.1944 80.7 68.3811 80.3533 68.3811 79.9C68.3811 79.4467 68.1944 79.1067 67.8211 78.88C67.4611 78.64 66.9811 78.52 66.3811 78.52ZM65.0611 72.12H67.7011V75.04H65.0611V72.12ZM81.5995 74.34H83.8395C83.8395 75.5133 83.7995 76.66 83.7195 77.78C83.6529 78.8867 83.5195 79.96 83.3195 81C83.1195 82.04 82.8395 83.0467 82.4795 84.02C82.1329 84.9933 81.6729 85.9467 81.0995 86.88L79.0395 85.76C79.5862 84.9067 80.0262 84.06 80.3595 83.22C80.6929 82.3667 80.9462 81.4933 81.1195 80.6C81.3062 79.7067 81.4329 78.7667 81.4995 77.78C81.5662 76.78 81.5995 75.7067 81.5995 74.56V74.34ZM79.6595 74.34H83.0195V76.48H79.6595V74.34ZM85.7195 74.34H87.9595C87.9595 75.5533 87.9262 76.7467 87.8595 77.92C87.8062 79.0933 87.6862 80.2467 87.4995 81.38C87.3262 82.5133 87.0529 83.6133 86.6795 84.68C86.3195 85.7467 85.8262 86.78 85.1995 87.78L83.1795 86.64C83.6462 85.9067 84.0329 85.1667 84.3395 84.42C84.6595 83.6733 84.9129 82.9133 85.0995 82.14C85.2862 81.3667 85.4195 80.58 85.4995 79.78C85.5929 78.9667 85.6529 78.1333 85.6795 77.28C85.7062 76.4133 85.7195 75.52 85.7195 74.6V74.34ZM84.3795 74.34H87.2395V76.48H84.3795V74.34ZM92.8795 72.26H95.3995V90.78H92.8795V72.26ZM87.0595 79.2H89.6995V81.32H87.0595V79.2ZM89.2795 72.64H91.7795V89.94H89.2795V72.64ZM109.598 72.26H112.258V90.78H109.598V72.26ZM111.658 79.48H114.918V81.68H111.658V79.48ZM97.638 74.98H108.438V77.1H97.638V74.98ZM103.078 78.16C103.971 78.16 104.771 78.3533 105.478 78.74C106.185 79.1133 106.738 79.6267 107.138 80.28C107.551 80.9333 107.758 81.6933 107.758 82.56C107.758 83.4267 107.551 84.1933 107.138 84.86C106.738 85.5133 106.185 86.0333 105.478 86.42C104.785 86.7933 103.985 86.98 103.078 86.98C102.185 86.98 101.378 86.7933 100.658 86.42C99.9513 86.0333 99.3913 85.5133 98.978 84.86C98.578 84.1933 98.378 83.4267 98.378 82.56C98.378 81.6933 98.578 80.9333 98.978 80.28C99.3913 79.6267 99.9513 79.1133 100.658 78.74C101.378 78.3533 102.185 78.16 103.078 78.16ZM103.078 80.32C102.651 80.32 102.278 80.4067 101.958 80.58C101.638 80.7533 101.385 81.0067 101.198 81.34C101.011 81.6733 100.918 82.08 100.918 82.56C100.918 83.0267 101.011 83.4333 101.198 83.78C101.385 84.1133 101.638 84.3733 101.958 84.56C102.278 84.7333 102.651 84.82 103.078 84.82C103.491 84.82 103.858 84.7333 104.178 84.56C104.498 84.3733 104.751 84.1133 104.938 83.78C105.125 83.4333 105.218 83.0267 105.218 82.56C105.218 82.08 105.125 81.6733 104.938 81.34C104.751 81.0067 104.498 80.7533 104.178 80.58C103.858 80.4067 103.491 80.32 103.078 80.32ZM101.718 72.56H104.398V75.8H101.718V72.56ZM118.196 77.24H131.036V79.36H118.196V77.24ZM116.136 81.28H132.896V83.4H116.136V81.28ZM118.196 72.9H120.856V78.3H118.196V72.9ZM118.036 88.24H131.136V90.38H118.036V88.24ZM118.036 84.86H120.696V88.82H118.036V84.86ZM143.44 75.54H145.6V76.2C145.6 77.28 145.414 78.3 145.04 79.26C144.667 80.2067 144.094 81.0333 143.32 81.74C142.56 82.4467 141.587 82.9733 140.4 83.32L139.16 81.24C140.16 80.96 140.974 80.56 141.6 80.04C142.24 79.52 142.707 78.9267 143 78.26C143.294 77.58 143.44 76.8933 143.44 76.2V75.54ZM143.94 75.54H146.1V76.2C146.1 76.84 146.247 77.4733 146.54 78.1C146.847 78.7267 147.314 79.2933 147.94 79.8C148.567 80.2933 149.374 80.6733 150.36 80.94L149.14 83C147.967 82.6667 146.994 82.1667 146.22 81.5C145.46 80.82 144.887 80.0267 144.5 79.12C144.127 78.2 143.94 77.2267 143.94 76.2V75.54ZM139.8 74.18H149.76V76.26H139.8V74.18ZM143.44 72.2H146.1V75.08H143.44V72.2ZM151.2 72.26H153.86V83.58H151.2V72.26ZM153.14 76.8H156.32V78.98H153.14V76.8ZM141.5 84.36H153.86V90.78H151.2V86.5H141.5V84.36ZM169.599 72.26H172.259V86.1H169.599V72.26ZM171.519 77.9H174.719V80.1H171.519V77.9ZM157.699 74.2H168.579V76.28H157.699V74.2ZM163.139 76.94C164.032 76.94 164.819 77.0933 165.499 77.4C166.192 77.6933 166.732 78.1133 167.119 78.66C167.506 79.1933 167.699 79.8067 167.699 80.5C167.699 81.2067 167.506 81.8333 167.119 82.38C166.732 82.9133 166.192 83.3333 165.499 83.64C164.819 83.9333 164.032 84.08 163.139 84.08C162.259 84.08 161.472 83.9333 160.779 83.64C160.086 83.3333 159.546 82.9133 159.159 82.38C158.772 81.8333 158.579 81.2067 158.579 80.5C158.579 79.8067 158.772 79.1933 159.159 78.66C159.546 78.1133 160.086 77.6933 160.779 77.4C161.472 77.0933 162.259 76.94 163.139 76.94ZM163.139 78.96C162.552 78.96 162.072 79.0933 161.699 79.36C161.326 79.6267 161.139 80.0133 161.139 80.52C161.139 81.0133 161.326 81.3933 161.699 81.66C162.072 81.9267 162.552 82.06 163.139 82.06C163.739 82.06 164.219 81.9267 164.579 81.66C164.952 81.3933 165.139 81.0133 165.139 80.52C165.139 80.0133 164.952 79.6267 164.579 79.36C164.219 79.0933 163.739 78.96 163.139 78.96ZM161.819 72.24H164.459V75.2H161.819V72.24ZM160.319 88.32H172.919V90.46H160.319V88.32ZM160.319 85.06H162.999V89.24H160.319V85.06ZM184.983 82.76H187.623V87.62H184.983V82.76ZM190.883 82.76H193.523V87.62H190.883V82.76ZM180.863 86.48H197.643V88.64H180.863V86.48ZM187.743 73.24H190.063V74.58C190.063 75.3533 189.95 76.1 189.723 76.82C189.496 77.5267 189.17 78.1933 188.743 78.82C188.316 79.4467 187.783 80.0133 187.143 80.52C186.516 81.0267 185.796 81.46 184.983 81.82C184.183 82.1667 183.29 82.4267 182.303 82.6L181.223 80.4C182.076 80.2667 182.843 80.06 183.523 79.78C184.216 79.5 184.823 79.1667 185.343 78.78C185.863 78.3933 186.296 77.9733 186.643 77.52C187.003 77.0533 187.276 76.5733 187.463 76.08C187.65 75.5733 187.743 75.0733 187.743 74.58V73.24ZM188.243 73.24H190.583V74.58C190.583 75.0733 190.67 75.5733 190.843 76.08C191.016 76.5867 191.276 77.0733 191.623 77.54C191.983 77.9933 192.423 78.4133 192.943 78.8C193.463 79.1867 194.07 79.52 194.763 79.8C195.456 80.0667 196.23 80.2667 197.083 80.4L196.003 82.6C195.03 82.4267 194.136 82.1667 193.323 81.82C192.51 81.46 191.79 81.0267 191.163 80.52C190.536 80.0133 190.003 79.4533 189.563 78.84C189.136 78.2133 188.81 77.54 188.583 76.82C188.356 76.1 188.243 75.3533 188.243 74.58V73.24ZM200.041 73.64H210.021V75.76H200.041V73.64ZM199.861 82.68L199.581 80.5C200.621 80.5 201.768 80.4933 203.021 80.48C204.288 80.4533 205.581 80.4 206.901 80.32C208.235 80.24 209.508 80.12 210.721 79.96L210.901 81.9C209.675 82.1267 208.401 82.2933 207.081 82.4C205.761 82.5067 204.481 82.58 203.241 82.62C202.001 82.66 200.875 82.68 199.861 82.68ZM201.521 75.32H204.061V81.52H201.521V75.32ZM206.001 75.32H208.561V81.52H206.001V75.32ZM211.981 72.26H214.641V83.42H211.981V72.26ZM208.421 83.76C210.381 83.76 211.928 84.0667 213.061 84.68C214.195 85.2933 214.761 86.1533 214.761 87.26C214.761 88.3667 214.195 89.2267 213.061 89.84C211.928 90.4667 210.381 90.78 208.421 90.78C206.461 90.78 204.915 90.4667 203.781 89.84C202.648 89.2267 202.081 88.3667 202.081 87.26C202.081 86.1533 202.648 85.2933 203.781 84.68C204.915 84.0667 206.461 83.76 208.421 83.76ZM208.421 85.78C207.608 85.78 206.928 85.8333 206.381 85.94C205.835 86.0467 205.421 86.2133 205.141 86.44C204.861 86.6533 204.721 86.9267 204.721 87.26C204.721 87.5933 204.861 87.8733 205.141 88.1C205.421 88.3267 205.835 88.4933 206.381 88.6C206.928 88.7067 207.608 88.76 208.421 88.76C209.235 88.76 209.915 88.7067 210.461 88.6C211.008 88.4933 211.415 88.3267 211.681 88.1C211.961 87.8733 212.101 87.5933 212.101 87.26C212.101 86.9267 211.961 86.6533 211.681 86.44C211.415 86.2133 211.008 86.0467 210.461 85.94C209.915 85.8333 209.235 85.78 208.421 85.78Z" fill="#212121"/>
</svg>
